<svg data-v-fde0c5aa="" xmlns="http://www.w3.org/2000/svg" viewBox="0 0 300 300" class="iconLeftSlogan"><!----><defs data-v-fde0c5aa=""><!----></defs><rect data-v-fde0c5aa="" fill="transparent" x="0" y="0" width="300px" height="300px" class="logo-background-square"></rect><defs data-v-fde0c5aa=""><!----></defs><g data-v-fde0c5aa="" id="c0438d5e-9994-4915-af63-7f5925f2711a" fill="#000000" transform="matrix(1.6406474890731109,0,0,1.6406474890731109,111.53781182741452,123.59352589159059)"><path d="M4.53 9.56L2.57 9.56L2.57 13.64L1.57 13.64L1.57 3.63L4.17 3.63L4.17 3.63Q4.83 3.63 5.41 3.83L5.41 3.83L5.41 3.83Q5.98 4.03 6.41 4.39L6.41 4.39L6.41 4.39Q6.83 4.74 7.08 5.23L7.08 5.23L7.08 5.23Q7.32 5.72 7.32 6.30L7.32 6.30L7.32 6.30Q7.32 6.81 7.14 7.25L7.14 7.25L7.14 7.25Q6.97 7.70 6.69 8.06L6.69 8.06L6.69 8.06Q6.41 8.43 6.07 8.72L6.07 8.72L6.07 8.72Q5.73 9.00 5.41 9.20L5.41 9.20L8.26 13.64L7.03 13.64L4.53 9.56ZM2.57 4.55L2.57 8.64L4.96 8.64L4.96 8.64Q5.28 8.47 5.52 8.22L5.52 8.22L5.52 8.22Q5.77 7.97 5.94 7.68L5.94 7.68L5.94 7.68Q6.10 7.39 6.19 7.07L6.19 7.07L6.19 7.07Q6.28 6.75 6.28 6.44L6.28 6.44L6.28 6.44Q6.28 6.04 6.13 5.69L6.13 5.69L6.13 5.69Q5.99 5.35 5.69 5.09L5.69 5.09L5.69 5.09Q5.39 4.83 4.95 4.69L4.95 4.69L4.95 4.69Q4.50 4.55 3.89 4.55L3.89 4.55L2.57 4.55ZM10.05 13.64L10.05 6.40L11.03 6.40L11.03 13.64L10.05 13.64ZM9.82 3.97L9.82 3.97L9.82 3.97Q9.82 3.82 9.88 3.69L9.88 3.69L9.88 3.69Q9.93 3.56 10.03 3.47L10.03 3.47L10.03 3.47Q10.13 3.37 10.26 3.31L10.26 3.31L10.26 3.31Q10.39 3.25 10.53 3.25L10.53 3.25L10.53 3.25Q10.68 3.25 10.81 3.31L10.81 3.31L10.81 3.31Q10.94 3.37 11.04 3.47L11.04 3.47L11.04 3.47Q11.14 3.56 11.19 3.69L11.19 3.69L11.19 3.69Q11.25 3.82 11.25 3.97L11.25 3.97L11.25 3.97Q11.25 4.12 11.19 4.25L11.19 4.25L11.19 4.25Q11.14 4.38 11.04 4.48L11.04 4.48L11.04 4.48Q10.94 4.57 10.81 4.63L10.81 4.63L10.81 4.63Q10.68 4.68 10.53 4.68L10.53 4.68L10.53 4.68Q10.39 4.68 10.26 4.63L10.26 4.63L10.26 4.63Q10.13 4.57 10.03 4.48L10.03 4.48L10.03 4.48Q9.93 4.38 9.88 4.25L9.88 4.25L9.88 4.25Q9.82 4.12 9.82 3.97ZM18.58 12.43L18.58 13.10L18.58 13.10Q18.40 13.23 18.16 13.35L18.16 13.35L18.16 13.35Q17.93 13.47 17.65 13.57L17.65 13.57L17.65 13.57Q17.38 13.67 17.06 13.72L17.06 13.72L17.06 13.72Q16.75 13.78 16.40 13.78L16.40 13.78L16.40 13.78Q15.68 13.78 15.07 13.52L15.07 13.52L15.07 13.52Q14.46 13.25 14.02 12.79L14.02 12.79L14.02 12.79Q13.58 12.32 13.34 11.67L13.34 11.67L13.34 11.67Q13.09 11.02 13.09 10.25L13.09 10.25L13.09 10.25Q13.09 9.38 13.40 8.64L13.40 8.64L13.40 8.64Q13.71 7.91 14.23 7.38L14.23 7.38L14.23 7.38Q14.75 6.86 15.45 6.56L15.45 6.56L15.45 6.56Q16.14 6.26 16.91 6.26L16.91 6.26L16.91 6.26Q17.14 6.26 17.38 6.29L17.38 6.29L17.38 6.29Q17.62 6.31 17.85 6.36L17.85 6.36L17.85 6.36Q18.07 6.41 18.27 6.47L18.27 6.47L18.27 6.47Q18.46 6.54 18.59 6.62L18.59 6.62L18.36 7.53L18.20 7.60L18.20 7.60Q18.06 7.51 17.88 7.42L17.88 7.42L17.88 7.42Q17.70 7.34 17.50 7.28L17.50 7.28L17.50 7.28Q17.29 7.23 17.08 7.19L17.08 7.19L17.08 7.19Q16.87 7.16 16.67 7.16L16.67 7.16L16.67 7.16Q16.18 7.16 15.72 7.35L15.72 7.35L15.72 7.35Q15.26 7.55 14.91 7.92L14.91 7.92L14.91 7.92Q14.55 8.29 14.33 8.83L14.33 8.83L14.33 8.83Q14.12 9.37 14.12 10.07L14.12 10.07L14.12 10.07Q14.12 10.76 14.33 11.28L14.33 11.28L14.33 11.28Q14.55 11.81 14.91 12.15L14.91 12.15L14.91 12.15Q15.28 12.50 15.75 12.68L15.75 12.68L15.75 12.68Q16.23 12.86 16.75 12.86L16.75 12.86L16.75 12.86Q17.12 12.86 17.61 12.76L17.61 12.76L17.61 12.76Q18.10 12.67 18.58 12.43L18.58 12.43ZM24.65 12.56L24.65 12.56L24.65 12.56Q24.50 12.70 24.27 12.91L24.27 12.91L24.27 12.91Q24.04 13.12 23.73 13.31L23.73 13.31L23.73 13.31Q23.43 13.51 23.07 13.64L23.07 13.64L23.07 13.64Q22.71 13.78 22.31 13.78L22.31 13.78L22.31 13.78Q21.95 13.78 21.59 13.64L21.59 13.64L21.59 13.64Q21.24 13.51 20.96 13.25L20.96 13.25L20.96 13.25Q20.67 12.99 20.50 12.60L20.50 12.60L20.50 12.60Q20.32 12.22 20.32 11.72L20.32 11.72L20.32 11.72Q20.32 11.28 20.49 10.85L20.49 10.85L20.49 10.85Q20.66 10.42 21.07 10.08L21.07 10.08L21.07 10.08Q21.48 9.74 22.18 9.53L22.18 9.53L22.18 9.53Q22.87 9.32 23.94 9.32L23.94 9.32L24.68 9.32L24.68 8.59L24.68 8.59Q24.68 8.26 24.56 8.00L24.56 8.00L24.56 8.00Q24.45 7.74 24.24 7.55L24.24 7.55L24.24 7.55Q24.04 7.36 23.75 7.26L23.75 7.26L23.75 7.26Q23.46 7.16 23.11 7.16L23.11 7.16L23.11 7.16Q22.87 7.16 22.58 7.21L22.58 7.21L22.58 7.21Q22.30 7.26 22.02 7.35L22.02 7.35L22.02 7.35Q21.75 7.44 21.49 7.57L21.49 7.57L21.49 7.57Q21.24 7.70 21.05 7.85L21.05 7.85L20.93 7.78L20.71 6.98L20.71 6.98Q21.10 6.75 21.46 6.61L21.46 6.61L21.46 6.61Q21.82 6.47 22.15 6.40L22.15 6.40L22.15 6.40Q22.47 6.32 22.75 6.29L22.75 6.29L22.75 6.29Q23.03 6.26 23.27 6.26L23.27 6.26L23.27 6.26Q23.91 6.26 24.37 6.42L24.37 6.42L24.37 6.42Q24.82 6.58 25.11 6.86L25.11 6.86L25.11 6.86Q25.40 7.15 25.53 7.55L25.53 7.55L25.53 7.55Q25.66 7.96 25.66 8.45L25.66 8.45L25.66 12.10L25.66 12.10Q25.66 12.17 25.67 12.30L25.67 12.30L25.67 12.30Q25.68 12.43 25.73 12.55L25.73 12.55L25.73 12.55Q25.79 12.67 25.88 12.77L25.88 12.77L25.88 12.77Q25.98 12.86 26.15 12.86L26.15 12.86L26.15 12.86Q26.26 12.86 26.44 12.82L26.44 12.82L26.44 12.82Q26.62 12.78 26.79 12.70L26.79 12.70L26.79 13.33L26.79 13.33Q26.50 13.53 26.24 13.65L26.24 13.65L26.24 13.65Q25.98 13.78 25.69 13.78L25.69 13.78L25.69 13.78Q25.42 13.78 25.23 13.66L25.23 13.66L25.23 13.66Q25.04 13.54 24.92 13.36L24.92 13.36L24.92 13.36Q24.79 13.18 24.73 12.96L24.73 12.96L24.73 12.96Q24.67 12.75 24.65 12.56ZM24.68 11.69L24.68 10.10L24.07 10.10L24.07 10.10Q23.21 10.10 22.67 10.23L22.67 10.23L22.67 10.23Q22.14 10.35 21.85 10.55L21.85 10.55L21.85 10.55Q21.55 10.75 21.45 11.01L21.45 11.01L21.45 11.01Q21.35 11.27 21.35 11.54L21.35 11.54L21.35 11.54Q21.35 11.83 21.43 12.08L21.43 12.08L21.43 12.08Q21.52 12.32 21.68 12.49L21.68 12.49L21.68 12.49Q21.85 12.67 22.08 12.76L22.08 12.76L22.08 12.76Q22.32 12.86 22.62 12.86L22.62 12.86L22.62 12.86Q22.83 12.86 23.05 12.80L23.05 12.80L23.05 12.80Q23.28 12.74 23.53 12.61L23.53 12.61L23.53 12.61Q23.78 12.48 24.06 12.25L24.06 12.25L24.06 12.25Q24.35 12.02 24.68 11.69L24.68 11.69ZM28.44 13.64L28.44 6.40L29.22 6.40L29.37 8.50L29.37 8.50Q29.61 8.01 29.88 7.60L29.88 7.60L29.88 7.60Q30.15 7.19 30.45 6.89L30.45 6.89L30.45 6.89Q30.75 6.60 31.11 6.43L31.11 6.43L31.11 6.43Q31.46 6.26 31.88 6.26L31.88 6.26L31.88 6.26Q32.07 6.26 32.21 6.30L32.21 6.30L32.21 6.30Q32.36 6.34 32.54 6.43L32.54 6.43L32.44 7.32L32.44 7.32Q32.35 7.29 32.20 7.27L32.20 7.27L32.20 7.27Q32.05 7.26 31.92 7.26L31.92 7.26L31.92 7.26Q31.60 7.26 31.29 7.38L31.29 7.38L31.29 7.38Q30.98 7.49 30.67 7.76L30.67 7.76L30.67 7.76Q30.36 8.03 30.05 8.46L30.05 8.46L30.05 8.46Q29.74 8.89 29.42 9.53L29.42 9.53L29.42 13.64L28.44 13.64ZM38.94 11.61L38.94 7.52L38.94 7.52Q38.36 7.28 37.92 7.22L37.92 7.22L37.92 7.22Q37.47 7.16 37.22 7.16L37.22 7.16L37.22 7.16Q36.54 7.16 36.01 7.37L36.01 7.37L36.01 7.37Q35.47 7.57 35.10 7.96L35.10 7.96L35.10 7.96Q34.73 8.34 34.53 8.87L34.53 8.87L34.53 8.87Q34.33 9.41 34.33 10.05L34.33 10.05L34.33 10.05Q34.33 10.62 34.48 11.13L34.48 11.13L34.48 11.13Q34.64 11.64 34.93 12.02L34.93 12.02L34.93 12.02Q35.22 12.41 35.63 12.63L35.63 12.63L35.63 12.63Q36.05 12.86 36.57 12.86L36.57 12.86L36.57 12.86Q37.19 12.86 37.77 12.53L37.77 12.53L37.77 12.53Q38.36 12.21 38.94 11.61L38.94 11.61ZM38.94 6.48L38.94 2.69L39.92 2.69L39.92 13.64L39.14 13.64L38.99 12.37L38.99 12.37Q38.77 12.58 38.48 12.82L38.48 12.82L38.48 12.82Q38.19 13.07 37.83 13.28L37.83 13.28L37.83 13.28Q37.48 13.49 37.07 13.64L37.07 13.64L37.07 13.64Q36.65 13.78 36.20 13.78L36.20 13.78L36.20 13.78Q35.53 13.78 35 13.48L35 13.48L35 13.48Q34.47 13.19 34.09 12.69L34.09 12.69L34.09 12.69Q33.71 12.20 33.51 11.56L33.51 11.56L33.51 11.56Q33.30 10.92 33.30 10.23L33.30 10.23L33.30 10.23Q33.30 9.36 33.62 8.63L33.62 8.63L33.62 8.63Q33.94 7.90 34.49 7.38L34.49 7.38L34.49 7.38Q35.04 6.85 35.79 6.56L35.79 6.56L35.79 6.56Q36.53 6.26 37.39 6.26L37.39 6.26L37.39 6.26Q37.85 6.26 38.24 6.33L38.24 6.33L38.24 6.33Q38.63 6.41 38.94 6.48L38.94 6.48ZM45.36 13.78L45.36 13.78L45.36 13.78Q44.56 13.78 43.94 13.48L43.94 13.48L43.94 13.48Q43.31 13.19 42.88 12.69L42.88 12.69L42.88 12.69Q42.44 12.19 42.21 11.53L42.21 11.53L42.21 11.53Q41.98 10.88 41.98 10.16L41.98 10.16L41.98 10.16Q41.98 9.34 42.27 8.63L42.27 8.63L42.27 8.63Q42.55 7.92 43.06 7.40L43.06 7.40L43.06 7.40Q43.57 6.87 44.25 6.57L44.25 6.57L44.25 6.57Q44.93 6.26 45.73 6.26L45.73 6.26L45.73 6.26Q46.53 6.26 47.15 6.56L47.15 6.56L47.15 6.56Q47.78 6.86 48.21 7.37L48.21 7.37L48.21 7.37Q48.64 7.88 48.86 8.53L48.86 8.53L48.86 8.53Q49.09 9.19 49.09 9.91L49.09 9.91L49.09 9.91Q49.09 10.72 48.80 11.43L48.80 11.43L48.80 11.43Q48.51 12.13 48.01 12.66L48.01 12.66L48.01 12.66Q47.51 13.18 46.83 13.48L46.83 13.48L46.83 13.48Q46.14 13.78 45.36 13.78ZM45.54 12.89L45.54 12.89L45.54 12.89Q46.12 12.89 46.58 12.65L46.58 12.65L46.58 12.65Q47.04 12.42 47.37 12.03L47.37 12.03L47.37 12.03Q47.70 11.64 47.88 11.13L47.88 11.13L47.88 11.13Q48.06 10.62 48.06 10.07L48.06 10.07L48.06 10.07Q48.06 9.53 47.89 9.01L47.89 9.01L47.89 9.01Q47.72 8.48 47.40 8.07L47.40 8.07L47.40 8.07Q47.07 7.66 46.60 7.41L46.60 7.41L46.60 7.41Q46.13 7.16 45.53 7.16L45.53 7.16L45.53 7.16Q44.96 7.16 44.50 7.39L44.50 7.39L44.50 7.39Q44.04 7.62 43.70 8.00L43.70 8.00L43.70 8.00Q43.37 8.39 43.19 8.91L43.19 8.91L43.19 8.91Q43.00 9.42 43.00 9.98L43.00 9.98L43.00 9.98Q43.00 10.51 43.18 11.03L43.18 11.03L43.18 11.03Q43.35 11.55 43.67 11.97L43.67 11.97L43.67 11.97Q44.00 12.38 44.47 12.63L44.47 12.63L44.47 12.63Q44.94 12.89 45.54 12.89ZM57.61 9.56L55.66 9.56L55.66 13.64L54.66 13.64L54.66 3.63L57.26 3.63L57.26 3.63Q57.92 3.63 58.50 3.83L58.50 3.83L58.50 3.83Q59.07 4.03 59.49 4.39L59.49 4.39L59.49 4.39Q59.92 4.74 60.16 5.23L60.16 5.23L60.16 5.23Q60.41 5.72 60.41 6.30L60.41 6.30L60.41 6.30Q60.41 6.81 60.23 7.25L60.23 7.25L60.23 7.25Q60.05 7.70 59.77 8.06L59.77 8.06L59.77 8.06Q59.49 8.43 59.15 8.72L59.15 8.72L59.15 8.72Q58.82 9.00 58.50 9.20L58.50 9.20L61.35 13.64L60.12 13.64L57.61 9.56ZM55.66 4.55L55.66 8.64L58.05 8.64L58.05 8.64Q58.37 8.47 58.61 8.22L58.61 8.22L58.61 8.22Q58.86 7.97 59.02 7.68L59.02 7.68L59.02 7.68Q59.19 7.39 59.28 7.07L59.28 7.07L59.28 7.07Q59.36 6.75 59.36 6.44L59.36 6.44L59.36 6.44Q59.36 6.04 59.22 5.69L59.22 5.69L59.22 5.69Q59.08 5.35 58.78 5.09L58.78 5.09L58.78 5.09Q58.48 4.83 58.03 4.69L58.03 4.69L58.03 4.69Q57.59 4.55 56.98 4.55L56.98 4.55L55.66 4.55ZM68.46 12.43L68.46 13.10L68.46 13.10Q68.24 13.25 67.93 13.38L67.93 13.38L67.93 13.38Q67.63 13.50 67.29 13.59L67.29 13.59L67.29 13.59Q66.95 13.69 66.60 13.73L66.60 13.73L66.60 13.73Q66.25 13.78 65.95 13.78L65.95 13.78L65.95 13.78Q65.30 13.78 64.69 13.55L64.69 13.55L64.69 13.55Q64.07 13.32 63.60 12.87L63.60 12.87L63.60 12.87Q63.12 12.41 62.84 11.72L62.84 11.72L62.84 11.72Q62.55 11.04 62.55 10.12L62.55 10.12L62.55 10.12Q62.55 9.22 62.83 8.50L62.83 8.50L62.83 8.50Q63.11 7.79 63.58 7.29L63.58 7.29L63.58 7.29Q64.05 6.79 64.65 6.53L64.65 6.53L64.65 6.53Q65.25 6.26 65.88 6.26L65.88 6.26L65.88 6.26Q66.46 6.26 66.98 6.47L66.98 6.47L66.98 6.47Q67.49 6.69 67.88 7.08L67.88 7.08L67.88 7.08Q68.27 7.47 68.50 8.04L68.50 8.04L68.50 8.04Q68.73 8.60 68.73 9.30L68.73 9.30L68.73 9.30Q68.73 9.45 68.71 9.68L68.71 9.68L68.71 9.68Q68.70 9.92 68.67 10.16L68.67 10.16L63.57 10.16L63.57 10.16Q63.57 10.75 63.77 11.24L63.77 11.24L63.77 11.24Q63.97 11.73 64.34 12.09L64.34 12.09L64.34 12.09Q64.71 12.46 65.24 12.66L65.24 12.66L65.24 12.66Q65.78 12.86 66.45 12.86L66.45 12.86L66.45 12.86Q66.62 12.86 66.86 12.84L66.86 12.84L66.86 12.84Q67.10 12.82 67.38 12.78L67.38 12.78L67.38 12.78Q67.65 12.73 67.93 12.65L67.93 12.65L67.93 12.65Q68.22 12.56 68.46 12.43L68.46 12.43ZM63.57 9.38L67.77 9.38L67.77 9.38Q67.77 8.83 67.60 8.41L67.60 8.41L67.60 8.41Q67.43 8.00 67.15 7.72L67.15 7.72L67.15 7.72Q66.87 7.44 66.51 7.30L66.51 7.30L66.51 7.30Q66.14 7.16 65.75 7.16L65.75 7.16L65.75 7.16Q65.28 7.16 64.89 7.35L64.89 7.35L64.89 7.35Q64.49 7.54 64.20 7.85L64.20 7.85L64.20 7.85Q63.92 8.17 63.75 8.57L63.75 8.57L63.75 8.57Q63.59 8.97 63.57 9.38L63.57 9.38ZM73.04 13.64L72.76 13.64L69.99 6.40L71.15 6.40L72.97 11.52L73.29 12.64L73.42 12.64L73.73 11.52L75.55 6.40L76.59 6.40L72.43 17.31L71.44 17.31L73.04 13.64ZM83.51 12.43L83.51 13.10L83.51 13.10Q83.28 13.25 82.98 13.38L82.98 13.38L82.98 13.38Q82.67 13.50 82.34 13.59L82.34 13.59L82.34 13.59Q82.00 13.69 81.65 13.73L81.65 13.73L81.65 13.73Q81.30 13.78 80.99 13.78L80.99 13.78L80.99 13.78Q80.34 13.78 79.73 13.55L79.73 13.55L79.73 13.55Q79.12 13.32 78.64 12.87L78.64 12.87L78.64 12.87Q78.17 12.41 77.88 11.72L77.88 11.72L77.88 11.72Q77.59 11.04 77.59 10.12L77.59 10.12L77.59 10.12Q77.59 9.22 77.88 8.50L77.88 8.50L77.88 8.50Q78.16 7.79 78.62 7.29L78.62 7.29L78.62 7.29Q79.09 6.79 79.69 6.53L79.69 6.53L79.69 6.53Q80.29 6.26 80.93 6.26L80.93 6.26L80.93 6.26Q81.50 6.26 82.02 6.47L82.02 6.47L82.02 6.47Q82.54 6.69 82.93 7.08L82.93 7.08L82.93 7.08Q83.32 7.47 83.55 8.04L83.55 8.04L83.55 8.04Q83.77 8.60 83.77 9.30L83.77 9.30L83.77 9.30Q83.77 9.45 83.76 9.68L83.76 9.68L83.76 9.68Q83.75 9.92 83.71 10.16L83.71 10.16L78.62 10.16L78.62 10.16Q78.62 10.75 78.82 11.24L78.82 11.24L78.82 11.24Q79.02 11.73 79.39 12.09L79.39 12.09L79.39 12.09Q79.75 12.46 80.29 12.66L80.29 12.66L80.29 12.66Q80.82 12.86 81.49 12.86L81.49 12.86L81.49 12.86Q81.66 12.86 81.90 12.84L81.90 12.84L81.90 12.84Q82.15 12.82 82.42 12.78L82.42 12.78L82.42 12.78Q82.69 12.73 82.98 12.65L82.98 12.65L82.98 12.65Q83.26 12.56 83.51 12.43L83.51 12.43ZM78.62 9.38L82.82 9.38L82.82 9.38Q82.82 8.83 82.65 8.41L82.65 8.41L82.65 8.41Q82.48 8.00 82.20 7.72L82.20 7.72L82.20 7.72Q81.92 7.44 81.55 7.30L81.55 7.30L81.55 7.30Q81.19 7.16 80.80 7.16L80.80 7.16L80.80 7.16Q80.33 7.16 79.93 7.35L79.93 7.35L79.93 7.35Q79.54 7.54 79.25 7.85L79.25 7.85L79.25 7.85Q78.96 8.17 78.80 8.57L78.80 8.57L78.80 8.57Q78.63 8.97 78.62 9.38L78.62 9.38ZM85.48 13.30L85.70 12.43L85.83 12.35L85.83 12.35Q86.08 12.50 86.37 12.60L86.37 12.60L86.37 12.60Q86.65 12.69 86.92 12.76L86.92 12.76L86.92 12.76Q87.19 12.82 87.45 12.85L87.45 12.85L87.45 12.85Q87.71 12.89 87.92 12.89L87.92 12.89L87.92 12.89Q88.27 12.89 88.57 12.80L88.57 12.80L88.57 12.80Q88.87 12.72 89.09 12.57L89.09 12.57L89.09 12.57Q89.31 12.41 89.43 12.20L89.43 12.20L89.43 12.20Q89.56 11.98 89.56 11.71L89.56 11.71L89.56 11.71Q89.56 11.39 89.39 11.18L89.39 11.18L89.39 11.18Q89.22 10.96 88.95 10.82L88.95 10.82L88.95 10.82Q88.68 10.67 88.32 10.56L88.32 10.56L88.32 10.56Q87.97 10.46 87.61 10.35L87.61 10.35L87.61 10.35Q87.24 10.24 86.89 10.10L86.89 10.10L86.89 10.10Q86.54 9.97 86.26 9.76L86.26 9.76L86.26 9.76Q85.99 9.56 85.82 9.26L85.82 9.26L85.82 9.26Q85.65 8.96 85.65 8.52L85.65 8.52L85.65 8.52Q85.65 8.06 85.85 7.65L85.85 7.65L85.85 7.65Q86.05 7.24 86.41 6.93L86.41 6.93L86.41 6.93Q86.77 6.62 87.26 6.44L87.26 6.44L87.26 6.44Q87.75 6.26 88.35 6.26L88.35 6.26L88.35 6.26Q88.52 6.26 88.74 6.28L88.74 6.28L88.74 6.28Q88.96 6.30 89.21 6.33L89.21 6.33L89.21 6.33Q89.46 6.36 89.72 6.42L89.72 6.42L89.72 6.42Q89.98 6.47 90.23 6.56L90.23 6.56L89.98 7.45L89.86 7.53L89.86 7.53Q89.68 7.45 89.46 7.38L89.46 7.38L89.46 7.38Q89.24 7.31 89.02 7.26L89.02 7.26L89.02 7.26Q88.79 7.21 88.57 7.18L88.57 7.18L88.57 7.18Q88.34 7.16 88.15 7.16L88.15 7.16L88.15 7.16Q87.80 7.16 87.51 7.24L87.51 7.24L87.51 7.24Q87.22 7.33 87.01 7.48L87.01 7.48L87.01 7.48Q86.80 7.64 86.68 7.85L86.68 7.85L86.68 7.85Q86.56 8.06 86.56 8.31L86.56 8.31L86.56 8.31Q86.56 8.62 86.73 8.83L86.73 8.83L86.73 8.83Q86.90 9.04 87.18 9.18L87.18 9.18L87.18 9.18Q87.45 9.33 87.80 9.44L87.80 9.44L87.80 9.44Q88.16 9.55 88.53 9.66L88.53 9.66L88.53 9.66Q88.89 9.78 89.25 9.92L89.25 9.92L89.25 9.92Q89.60 10.06 89.88 10.27L89.88 10.27L89.88 10.27Q90.15 10.49 90.32 10.79L90.32 10.79L90.32 10.79Q90.49 11.09 90.49 11.53L90.49 11.53L90.49 11.53Q90.49 12.04 90.26 12.46L90.26 12.46L90.26 12.46Q90.03 12.88 89.64 13.17L89.64 13.17L89.64 13.17Q89.26 13.46 88.75 13.62L88.75 13.62L88.75 13.62Q88.25 13.78 87.70 13.78L87.70 13.78L87.70 13.78Q87.22 13.78 86.63 13.66L86.63 13.66L86.63 13.66Q86.04 13.54 85.48 13.30L85.48 13.30Z"></path></g><defs data-v-fde0c5aa=""><linearGradient data-v-fde0c5aa="" gradientTransform="rotate(25)" id="0512debc-8102-4db8-b02f-3d42f039237a" x1="0%" y1="0%" x2="100%" y2="0%"><stop data-v-fde0c5aa="" offset="0%" stop-color="#913C00" stop-opacity="1"></stop><stop data-v-fde0c5aa="" offset="100%" stop-color="#D9AD76" stop-opacity="1"></stop></linearGradient></defs><g data-v-fde0c5aa="" id="00a4f63a-c5e0-49ca-8ad5-b0ff06e0313e" stroke="none" fill="url(#0512debc-8102-4db8-b02f-3d42f039237a)" transform="matrix(1.2591669289088907,0,0,1.2591669289088907,39.0781221498353,118.49195389668664)"><path d="M17.422 36.759a.995.995 0 0 1-.564-.175L1.167 25.825a1 1 0 0 1 0-1.65l15.69-10.759a1 1 0 0 1 1.131 1.649L3.5 25l14.488 9.934a1 1 0 0 1-.566 1.825zM32.578 36.759a1.001 1.001 0 0 1-.566-1.826L46.499 25l-14.487-9.934a1 1 0 0 1 1.131-1.649l15.69 10.759a1.001 1.001 0 0 1 0 1.65l-15.69 10.759a1.01 1.01 0 0 1-.565.174zM20.557 41.697a1 1 0 0 1-1.9-.625l10.787-32.77a1.002 1.002 0 0 1 1.901.626L20.557 41.697z"></path></g><defs data-v-fde0c5aa=""><!----></defs><g data-v-fde0c5aa="" id="0570a9bd-4613-4674-be04-90cfccae4ba6" fill="#000000" transform="matrix(0.3497551393492178,0,0,0.3497551393492178,113.6029857589423,160.7200235250022)"><path d="M7.76 4.42L2.16 4.42L2.16 7.99L6.59 7.99L6.59 8.65L2.16 8.65L2.16 13.02L1.46 13.02L1.46 3.78L7.76 3.78L7.76 4.42ZM23.65 3.78L23.65 9.65L23.65 9.65Q23.65 11.35 22.72 12.26L22.72 12.26L22.72 12.26Q21.80 13.16 20.09 13.16L20.09 13.16L20.09 13.16Q18.38 13.16 17.45 12.26L17.45 12.26L17.45 12.26Q16.52 11.35 16.52 9.65L16.52 9.65L16.52 3.78L17.22 3.78L17.22 9.51L17.22 9.51Q17.22 10.99 17.95 11.75L17.95 11.75L17.95 11.75Q18.68 12.52 20.09 12.52L20.09 12.52L20.09 12.52Q21.49 12.52 22.22 11.75L22.22 11.75L22.22 11.75Q22.95 10.99 22.95 9.51L22.95 9.51L22.95 3.78L23.65 3.78ZM34.15 12.38L39.69 12.38L39.69 13.02L33.45 13.02L33.45 3.78L34.15 3.78L34.15 12.38ZM49.15 12.38L54.70 12.38L54.70 13.02L48.45 13.02L48.45 3.78L49.15 3.78L49.15 12.38ZM77.32 3.64L77.32 3.64Q79.93 3.64 80.81 5.68L80.81 5.68L80.21 6.17L80.21 6.17Q79.86 5.18 79.16 4.73L79.16 4.73L79.16 4.73Q78.47 4.28 77.34 4.28L77.34 4.28L77.34 4.28Q76.52 4.28 75.92 4.54L75.92 4.54L75.92 4.54Q75.32 4.79 75.01 5.22L75.01 5.22L75.01 5.22Q74.69 5.66 74.69 6.20L74.69 6.20L74.69 6.20Q74.69 6.73 74.96 7.08L74.96 7.08L74.96 7.08Q75.22 7.43 75.86 7.68L75.86 7.68L75.86 7.68Q76.50 7.92 77.62 8.12L77.62 8.12L77.62 8.12Q79.42 8.43 80.18 9.02L80.18 9.02L80.18 9.02Q80.93 9.60 80.93 10.64L80.93 10.64L80.93 10.64Q80.93 11.38 80.50 11.96L80.50 11.96L80.50 11.96Q80.07 12.53 79.28 12.84L79.28 12.84L79.28 12.84Q78.48 13.16 77.46 13.16L77.46 13.16L77.46 13.16Q76.01 13.16 75.01 12.58L75.01 12.58L75.01 12.58Q74.00 12.00 73.64 10.95L73.64 10.95L74.26 10.47L74.26 10.47Q74.54 11.47 75.38 11.99L75.38 11.99L75.38 11.99Q76.23 12.52 77.48 12.52L77.48 12.52L77.48 12.52Q78.68 12.52 79.44 12.03L79.44 12.03L79.44 12.03Q80.21 11.54 80.21 10.68L80.21 10.68L80.21 10.68Q80.21 9.94 79.58 9.51L79.58 9.51L79.58 9.51Q78.96 9.07 77.42 8.81L77.42 8.81L77.42 8.81Q76.12 8.58 75.36 8.26L75.36 8.26L75.36 8.26Q74.61 7.94 74.28 7.46L74.28 7.46L74.28 7.46Q73.95 6.99 73.95 6.27L73.95 6.27L73.95 6.27Q73.95 5.56 74.36 4.96L74.36 4.96L74.36 4.96Q74.77 4.35 75.54 4.00L75.54 4.00L75.54 4.00Q76.30 3.64 77.32 3.64L77.32 3.64ZM96.01 3.78L96.01 4.42L92.64 4.42L92.64 13.02L91.94 13.02L91.94 4.42L88.56 4.42L88.56 3.78L96.01 3.78ZM109.73 13.02L108.57 10.12L104.15 10.12L103.00 13.02L102.26 13.02L105.95 3.78L106.78 3.78L110.47 13.02L109.73 13.02ZM104.41 9.48L108.32 9.48L106.71 5.45L106.37 4.47L106.36 4.47L106.02 5.42L104.41 9.48ZM126.27 10.68L126.27 10.68Q125.87 11.86 124.90 12.51L124.90 12.51L124.90 12.51Q123.93 13.16 122.57 13.16L122.57 13.16L122.57 13.16Q121.31 13.16 120.36 12.58L120.36 12.58L120.36 12.58Q119.41 12.00 118.89 10.92L118.89 10.92L118.89 10.92Q118.37 9.84 118.37 8.40L118.37 8.40L118.37 8.40Q118.37 6.96 118.89 5.88L118.89 5.88L118.89 5.88Q119.41 4.80 120.36 4.22L120.36 4.22L120.36 4.22Q121.31 3.64 122.56 3.64L122.56 3.64L122.56 3.64Q125.33 3.64 126.14 5.92L126.14 5.92L125.45 6.24L125.45 6.24Q125.13 5.26 124.42 4.77L124.42 4.77L124.42 4.77Q123.72 4.28 122.60 4.28L122.60 4.28L122.60 4.28Q121.56 4.28 120.77 4.78L120.77 4.78L120.77 4.78Q119.98 5.28 119.55 6.21L119.55 6.21L119.55 6.21Q119.11 7.14 119.11 8.40L119.11 8.40L119.11 8.40Q119.11 9.66 119.54 10.59L119.54 10.59L119.54 10.59Q119.97 11.52 120.74 12.02L120.74 12.02L120.74 12.02Q121.52 12.52 122.57 12.52L122.57 12.52L122.57 12.52Q123.69 12.52 124.47 11.97L124.47 11.97L124.47 11.97Q125.26 11.42 125.57 10.42L125.57 10.42L126.27 10.68ZM141.26 13.02L137.87 8.04L136.02 9.91L136.02 13.02L135.32 13.02L135.32 3.78L136.02 3.78L136.02 8.96L141.09 3.78L142.02 3.78L138.36 7.52L142.11 13.02L141.26 13.02ZM164.92 3.64L164.92 3.64Q167.52 3.64 168.41 5.68L168.41 5.68L167.80 6.17L167.80 6.17Q167.45 5.18 166.76 4.73L166.76 4.73L166.76 4.73Q166.07 4.28 164.93 4.28L164.93 4.28L164.93 4.28Q164.12 4.28 163.52 4.54L163.52 4.54L163.52 4.54Q162.92 4.79 162.60 5.22L162.60 5.22L162.60 5.22Q162.29 5.66 162.29 6.20L162.29 6.20L162.29 6.20Q162.29 6.73 162.55 7.08L162.55 7.08L162.55 7.08Q162.82 7.43 163.46 7.68L163.46 7.68L163.46 7.68Q164.09 7.92 165.21 8.12L165.21 8.12L165.21 8.12Q167.02 8.43 167.78 9.02L167.78 9.02L167.78 9.02Q168.53 9.60 168.53 10.64L168.53 10.64L168.53 10.64Q168.53 11.38 168.10 11.96L168.10 11.96L168.10 11.96Q167.66 12.53 166.87 12.84L166.87 12.84L166.87 12.84Q166.08 13.16 165.06 13.16L165.06 13.16L165.06 13.16Q163.60 13.16 162.60 12.58L162.60 12.58L162.60 12.58Q161.60 12.00 161.24 10.95L161.24 10.95L161.85 10.47L161.85 10.47Q162.13 11.47 162.98 11.99L162.98 11.99L162.98 11.99Q163.83 12.52 165.07 12.52L165.07 12.52L165.07 12.52Q166.28 12.52 167.04 12.03L167.04 12.03L167.04 12.03Q167.80 11.54 167.80 10.68L167.80 10.68L167.80 10.68Q167.80 9.94 167.18 9.51L167.18 9.51L167.18 9.51Q166.56 9.07 165.02 8.81L165.02 8.81L165.02 8.81Q163.72 8.58 162.96 8.26L162.96 8.26L162.96 8.26Q162.20 7.94 161.88 7.46L161.88 7.46L161.88 7.46Q161.55 6.99 161.55 6.27L161.55 6.27L161.55 6.27Q161.55 5.56 161.96 4.96L161.96 4.96L161.96 4.96Q162.37 4.35 163.13 4.00L163.13 4.00L163.13 4.00Q163.90 3.64 164.92 3.64L164.92 3.64ZM181.40 3.64L181.40 3.64Q182.70 3.64 183.66 4.22L183.66 4.22L183.66 4.22Q184.62 4.80 185.14 5.87L185.14 5.87L185.14 5.87Q185.65 6.94 185.65 8.40L185.65 8.40L185.65 8.40Q185.65 9.86 185.14 10.93L185.14 10.93L185.14 10.93Q184.62 12.00 183.66 12.58L183.66 12.58L183.66 12.58Q182.70 13.16 181.40 13.16L181.40 13.16L181.40 13.16Q180.10 13.16 179.14 12.58L179.14 12.58L179.14 12.58Q178.18 12.00 177.66 10.93L177.66 10.93L177.66 10.93Q177.14 9.86 177.14 8.40L177.14 8.40L177.14 8.40Q177.14 6.94 177.66 5.87L177.66 5.87L177.66 5.87Q178.18 4.80 179.14 4.22L179.14 4.22L179.14 4.22Q180.10 3.64 181.40 3.64L181.40 3.64ZM181.40 4.28L181.40 4.28Q180.32 4.28 179.53 4.78L179.53 4.78L179.53 4.78Q178.74 5.28 178.31 6.21L178.31 6.21L178.31 6.21Q177.88 7.14 177.88 8.40L177.88 8.40L177.88 8.40Q177.88 9.66 178.31 10.59L178.31 10.59L178.31 10.59Q178.74 11.52 179.53 12.02L179.53 12.02L179.53 12.02Q180.32 12.52 181.40 12.52L181.40 12.52L181.40 12.52Q182.48 12.52 183.27 12.02L183.27 12.02L183.27 12.02Q184.07 11.52 184.50 10.59L184.50 10.59L184.50 10.59Q184.93 9.66 184.93 8.40L184.93 8.40L184.93 8.40Q184.93 7.14 184.50 6.21L184.50 6.21L184.50 6.21Q184.07 5.28 183.27 4.78L183.27 4.78L183.27 4.78Q182.48 4.28 181.40 4.28L181.40 4.28ZM201.28 4.42L195.68 4.42L195.68 7.99L200.12 7.99L200.12 8.65L195.68 8.65L195.68 13.02L194.98 13.02L194.98 3.78L201.28 3.78L201.28 4.42ZM216.45 3.78L216.45 4.42L213.08 4.42L213.08 13.02L212.38 13.02L212.38 4.42L209.01 4.42L209.01 3.78L216.45 3.78ZM229.80 6.54L227.93 13.02L227.07 13.02L224.18 3.78L224.94 3.78L227.50 12.45L229.92 3.78L230.73 3.78L233.16 12.46L235.75 3.78L236.46 3.78L233.58 13.02L232.71 13.02L230.85 6.54L230.33 4.54L230.31 4.54L229.80 6.54ZM251.09 13.02L249.93 10.12L245.50 10.12L244.36 13.02L243.61 13.02L247.31 3.78L248.14 3.78L251.83 13.02L251.09 13.02ZM245.77 9.48L249.68 9.48L248.07 5.45L247.73 4.47L247.72 4.47L247.38 5.42L245.77 9.48ZM267.50 13.02L266.67 13.02L264.03 9.02L263.98 9.02L261.25 9.02L261.25 13.02L260.55 13.02L260.55 3.78L263.98 3.78L263.98 3.78Q265.37 3.78 266.19 4.48L266.19 4.48L266.19 4.48Q267.01 5.18 267.01 6.40L267.01 6.40L267.01 6.40Q267.01 7.41 266.42 8.07L266.42 8.07L266.42 8.07Q265.83 8.74 264.81 8.93L264.81 8.93L267.50 13.02ZM261.25 4.42L261.25 8.36L263.97 8.36L263.97 8.36Q265.09 8.36 265.68 7.85L265.68 7.85L265.68 7.85Q266.28 7.35 266.28 6.40L266.28 6.40L266.28 6.40Q266.28 5.45 265.68 4.93L265.68 4.93L265.68 4.93Q265.09 4.42 263.97 4.42L263.97 4.42L261.25 4.42ZM277.21 12.38L283.05 12.38L283.05 13.02L276.51 13.02L276.51 3.78L282.83 3.78L282.83 4.42L277.21 4.42L277.21 7.99L281.65 7.99L281.65 8.65L277.21 8.65L277.21 12.38ZM304.16 12.38L310.00 12.38L310.00 13.02L303.46 13.02L303.46 3.78L309.78 3.78L309.78 4.42L304.16 4.42L304.16 7.99L308.60 7.99L308.60 8.65L304.16 8.65L304.16 12.38ZM326.13 3.78L326.13 13.02L325.26 13.02L320.36 5.77L319.68 4.54L319.66 4.54L319.70 5.70L319.70 13.02L319.03 13.02L319.03 3.78L319.91 3.78L324.80 11.02L325.50 12.26L325.47 11.10L325.47 3.78L326.13 3.78ZM339.60 8.50L343.39 8.50L343.39 13.02L342.83 13.02L342.80 11.41L342.80 11.41Q342.43 12.25 341.62 12.71L341.62 12.71L341.62 12.71Q340.82 13.16 339.63 13.16L339.63 13.16L339.63 13.16Q338.37 13.16 337.42 12.58L337.42 12.58L337.42 12.58Q336.48 12.00 335.96 10.92L335.96 10.92L335.96 10.92Q335.45 9.84 335.45 8.40L335.45 8.40L335.45 8.40Q335.45 6.96 335.98 5.88L335.98 5.88L335.98 5.88Q336.50 4.80 337.46 4.22L337.46 4.22L337.46 4.22Q338.41 3.64 339.67 3.64L339.67 3.64L339.67 3.64Q341.08 3.64 341.98 4.20L341.98 4.20L341.98 4.20Q342.87 4.76 343.32 5.91L343.32 5.91L342.68 6.24L342.68 6.24Q342.36 5.28 341.59 4.78L341.59 4.78L341.59 4.78Q340.83 4.28 339.67 4.28L339.67 4.28L339.67 4.28Q338.63 4.28 337.85 4.78L337.85 4.78L337.85 4.78Q337.06 5.28 336.63 6.21L336.63 6.21L336.63 6.21Q336.20 7.14 336.20 8.40L336.20 8.40L336.20 8.40Q336.20 10.32 337.11 11.42L337.11 11.42L337.11 11.42Q338.03 12.52 339.65 12.52L339.65 12.52L339.65 12.52Q340.66 12.52 341.36 12.12L341.36 12.12L341.36 12.12Q342.06 11.72 342.40 11.07L342.40 11.07L342.40 11.07Q342.73 10.42 342.73 9.67L342.73 9.67L342.73 9.16L339.60 9.16L339.60 8.50ZM353.57 3.78L353.57 13.02L352.87 13.02L352.87 3.78L353.57 3.78ZM370.58 3.78L370.58 13.02L369.71 13.02L364.81 5.77L364.13 4.54L364.11 4.54L364.15 5.70L364.15 13.02L363.48 13.02L363.48 3.78L364.36 3.78L369.25 11.02L369.95 12.26L369.92 11.10L369.92 3.78L370.58 3.78ZM381.19 12.38L387.03 12.38L387.03 13.02L380.49 13.02L380.49 3.78L386.81 3.78L386.81 4.42L381.19 4.42L381.19 7.99L385.63 7.99L385.63 8.65L381.19 8.65L381.19 12.38ZM396.76 12.38L402.60 12.38L402.60 13.02L396.06 13.02L396.06 3.78L402.37 3.78L402.37 4.42L396.76 4.42L396.76 7.99L401.20 7.99L401.20 8.65L396.76 8.65L396.76 12.38ZM418.57 13.02L417.75 13.02L415.10 9.02L415.06 9.02L412.33 9.02L412.33 13.02L411.63 13.02L411.63 3.78L415.06 3.78L415.06 3.78Q416.44 3.78 417.26 4.48L417.26 4.48L417.26 4.48Q418.08 5.18 418.08 6.40L418.08 6.40L418.08 6.40Q418.08 7.41 417.49 8.07L417.49 8.07L417.49 8.07Q416.91 8.74 415.88 8.93L415.88 8.93L418.57 13.02ZM412.33 4.42L412.33 8.36L415.04 8.36L415.04 8.36Q416.16 8.36 416.76 7.85L416.76 7.85L416.76 7.85Q417.35 7.35 417.35 6.40L417.35 6.40L417.35 6.40Q417.35 5.45 416.76 4.93L416.76 4.93L416.76 4.93Q416.16 4.42 415.04 4.42L415.04 4.42L412.33 4.42Z"></path></g></svg>