<svg data-v-423bf9ae="" xmlns="http://www.w3.org/2000/svg" viewBox="0 0 364.924779748183 60" class="font"><!----><!----><!----><g data-v-423bf9ae="" id="9ce5ad77-664f-4e19-897f-dc8f1a19b9d6" fill="white" transform="matrix(4.1039674680923515,0,0,4.1039674680923515,-6.443231201647592,-11.03967320083649)"><path d="M4.53 9.56L2.57 9.56L2.57 13.64L1.57 13.64L1.57 3.63L4.17 3.63L4.17 3.63Q4.83 3.63 5.41 3.83L5.41 3.83L5.41 3.83Q5.98 4.03 6.41 4.39L6.41 4.39L6.41 4.39Q6.83 4.74 7.08 5.23L7.08 5.23L7.08 5.23Q7.32 5.72 7.32 6.30L7.32 6.30L7.32 6.30Q7.32 6.81 7.14 7.25L7.14 7.25L7.14 7.25Q6.97 7.70 6.69 8.06L6.69 8.06L6.69 8.06Q6.41 8.43 6.07 8.72L6.07 8.72L6.07 8.72Q5.73 9.00 5.41 9.20L5.41 9.20L8.26 13.64L7.03 13.64L4.53 9.56ZM2.57 4.55L2.57 8.64L4.96 8.64L4.96 8.64Q5.28 8.47 5.52 8.22L5.52 8.22L5.52 8.22Q5.77 7.97 5.94 7.68L5.94 7.68L5.94 7.68Q6.10 7.39 6.19 7.07L6.19 7.07L6.19 7.07Q6.28 6.75 6.28 6.44L6.28 6.44L6.28 6.44Q6.28 6.04 6.13 5.69L6.13 5.69L6.13 5.69Q5.99 5.35 5.69 5.09L5.69 5.09L5.69 5.09Q5.39 4.83 4.95 4.69L4.95 4.69L4.95 4.69Q4.50 4.55 3.89 4.55L3.89 4.55L2.57 4.55ZM10.05 13.64L10.05 6.40L11.03 6.40L11.03 13.64L10.05 13.64ZM9.82 3.97L9.82 3.97L9.82 3.97Q9.82 3.82 9.88 3.69L9.88 3.69L9.88 3.69Q9.93 3.56 10.03 3.47L10.03 3.47L10.03 3.47Q10.13 3.37 10.26 3.31L10.26 3.31L10.26 3.31Q10.39 3.25 10.53 3.25L10.53 3.25L10.53 3.25Q10.68 3.25 10.81 3.31L10.81 3.31L10.81 3.31Q10.94 3.37 11.04 3.47L11.04 3.47L11.04 3.47Q11.14 3.56 11.19 3.69L11.19 3.69L11.19 3.69Q11.25 3.82 11.25 3.97L11.25 3.97L11.25 3.97Q11.25 4.12 11.19 4.25L11.19 4.25L11.19 4.25Q11.14 4.38 11.04 4.48L11.04 4.48L11.04 4.48Q10.94 4.57 10.81 4.63L10.81 4.63L10.81 4.63Q10.68 4.68 10.53 4.68L10.53 4.68L10.53 4.68Q10.39 4.68 10.26 4.63L10.26 4.63L10.26 4.63Q10.13 4.57 10.03 4.48L10.03 4.48L10.03 4.48Q9.93 4.38 9.88 4.25L9.88 4.25L9.88 4.25Q9.82 4.12 9.82 3.97ZM18.58 12.43L18.58 13.10L18.58 13.10Q18.40 13.23 18.16 13.35L18.16 13.35L18.16 13.35Q17.93 13.47 17.65 13.57L17.65 13.57L17.65 13.57Q17.38 13.67 17.06 13.72L17.06 13.72L17.06 13.72Q16.75 13.78 16.40 13.78L16.40 13.78L16.40 13.78Q15.68 13.78 15.07 13.52L15.07 13.52L15.07 13.52Q14.46 13.25 14.02 12.79L14.02 12.79L14.02 12.79Q13.58 12.32 13.34 11.67L13.34 11.67L13.34 11.67Q13.09 11.02 13.09 10.25L13.09 10.25L13.09 10.25Q13.09 9.38 13.40 8.64L13.40 8.64L13.40 8.64Q13.71 7.91 14.23 7.38L14.23 7.38L14.23 7.38Q14.75 6.86 15.45 6.56L15.45 6.56L15.45 6.56Q16.14 6.26 16.91 6.26L16.91 6.26L16.91 6.26Q17.14 6.26 17.38 6.29L17.38 6.29L17.38 6.29Q17.62 6.31 17.85 6.36L17.85 6.36L17.85 6.36Q18.07 6.41 18.27 6.47L18.27 6.47L18.27 6.47Q18.46 6.54 18.59 6.62L18.59 6.62L18.36 7.53L18.20 7.60L18.20 7.60Q18.06 7.51 17.88 7.42L17.88 7.42L17.88 7.42Q17.70 7.34 17.50 7.28L17.50 7.28L17.50 7.28Q17.29 7.23 17.08 7.19L17.08 7.19L17.08 7.19Q16.87 7.16 16.67 7.16L16.67 7.16L16.67 7.16Q16.18 7.16 15.72 7.35L15.72 7.35L15.72 7.35Q15.26 7.55 14.91 7.92L14.91 7.92L14.91 7.92Q14.55 8.29 14.33 8.83L14.33 8.83L14.33 8.83Q14.12 9.37 14.12 10.07L14.12 10.07L14.12 10.07Q14.12 10.76 14.33 11.28L14.33 11.28L14.33 11.28Q14.55 11.81 14.91 12.15L14.91 12.15L14.91 12.15Q15.28 12.50 15.75 12.68L15.75 12.68L15.75 12.68Q16.23 12.86 16.75 12.86L16.75 12.86L16.75 12.86Q17.12 12.86 17.61 12.76L17.61 12.76L17.61 12.76Q18.10 12.67 18.58 12.43L18.58 12.43ZM24.65 12.56L24.65 12.56L24.65 12.56Q24.50 12.70 24.27 12.91L24.27 12.91L24.27 12.91Q24.04 13.12 23.73 13.31L23.73 13.31L23.73 13.31Q23.43 13.51 23.07 13.64L23.07 13.64L23.07 13.64Q22.71 13.78 22.31 13.78L22.31 13.78L22.31 13.78Q21.95 13.78 21.59 13.64L21.59 13.64L21.59 13.64Q21.24 13.51 20.96 13.25L20.96 13.25L20.96 13.25Q20.67 12.99 20.50 12.60L20.50 12.60L20.50 12.60Q20.32 12.22 20.32 11.72L20.32 11.72L20.32 11.72Q20.32 11.28 20.49 10.85L20.49 10.85L20.49 10.85Q20.66 10.42 21.07 10.08L21.07 10.08L21.07 10.08Q21.48 9.74 22.18 9.53L22.18 9.53L22.18 9.53Q22.87 9.32 23.94 9.32L23.94 9.32L24.68 9.32L24.68 8.59L24.68 8.59Q24.68 8.26 24.56 8.00L24.56 8.00L24.56 8.00Q24.45 7.74 24.24 7.55L24.24 7.55L24.24 7.55Q24.04 7.36 23.75 7.26L23.75 7.26L23.75 7.26Q23.46 7.16 23.11 7.16L23.11 7.16L23.11 7.16Q22.87 7.16 22.58 7.21L22.58 7.21L22.58 7.21Q22.30 7.26 22.02 7.35L22.02 7.35L22.02 7.35Q21.75 7.44 21.49 7.57L21.49 7.57L21.49 7.57Q21.24 7.70 21.05 7.85L21.05 7.85L20.93 7.78L20.71 6.98L20.71 6.98Q21.10 6.75 21.46 6.61L21.46 6.61L21.46 6.61Q21.82 6.47 22.15 6.40L22.15 6.40L22.15 6.40Q22.47 6.32 22.75 6.29L22.75 6.29L22.75 6.29Q23.03 6.26 23.27 6.26L23.27 6.26L23.27 6.26Q23.91 6.26 24.37 6.42L24.37 6.42L24.37 6.42Q24.82 6.58 25.11 6.86L25.11 6.86L25.11 6.86Q25.40 7.15 25.53 7.55L25.53 7.55L25.53 7.55Q25.66 7.96 25.66 8.45L25.66 8.45L25.66 12.10L25.66 12.10Q25.66 12.17 25.67 12.30L25.67 12.30L25.67 12.30Q25.68 12.43 25.73 12.55L25.73 12.55L25.73 12.55Q25.79 12.67 25.88 12.77L25.88 12.77L25.88 12.77Q25.98 12.86 26.15 12.86L26.15 12.86L26.15 12.86Q26.26 12.86 26.44 12.82L26.44 12.82L26.44 12.82Q26.62 12.78 26.79 12.70L26.79 12.70L26.79 13.33L26.79 13.33Q26.50 13.53 26.24 13.65L26.24 13.65L26.24 13.65Q25.98 13.78 25.69 13.78L25.69 13.78L25.69 13.78Q25.42 13.78 25.23 13.66L25.23 13.66L25.23 13.66Q25.04 13.54 24.92 13.36L24.92 13.36L24.92 13.36Q24.79 13.18 24.73 12.96L24.73 12.96L24.73 12.96Q24.67 12.75 24.65 12.56ZM24.68 11.69L24.68 10.10L24.07 10.10L24.07 10.10Q23.21 10.10 22.67 10.23L22.67 10.23L22.67 10.23Q22.14 10.35 21.85 10.55L21.85 10.55L21.85 10.55Q21.55 10.75 21.45 11.01L21.45 11.01L21.45 11.01Q21.35 11.27 21.35 11.54L21.35 11.54L21.35 11.54Q21.35 11.83 21.43 12.08L21.43 12.08L21.43 12.08Q21.52 12.32 21.68 12.49L21.68 12.49L21.68 12.49Q21.85 12.67 22.08 12.76L22.08 12.76L22.08 12.76Q22.32 12.86 22.62 12.86L22.62 12.86L22.62 12.86Q22.83 12.86 23.05 12.80L23.05 12.80L23.05 12.80Q23.28 12.74 23.53 12.61L23.53 12.61L23.53 12.61Q23.78 12.48 24.06 12.25L24.06 12.25L24.06 12.25Q24.35 12.02 24.68 11.69L24.68 11.69ZM28.44 13.64L28.44 6.40L29.22 6.40L29.37 8.50L29.37 8.50Q29.61 8.01 29.88 7.60L29.88 7.60L29.88 7.60Q30.15 7.19 30.45 6.89L30.45 6.89L30.45 6.89Q30.75 6.60 31.11 6.43L31.11 6.43L31.11 6.43Q31.46 6.26 31.88 6.26L31.88 6.26L31.88 6.26Q32.07 6.26 32.21 6.30L32.21 6.30L32.21 6.30Q32.36 6.34 32.54 6.43L32.54 6.43L32.44 7.32L32.44 7.32Q32.35 7.29 32.20 7.27L32.20 7.27L32.20 7.27Q32.05 7.26 31.92 7.26L31.92 7.26L31.92 7.26Q31.60 7.26 31.29 7.38L31.29 7.38L31.29 7.38Q30.98 7.49 30.67 7.76L30.67 7.76L30.67 7.76Q30.36 8.03 30.05 8.46L30.05 8.46L30.05 8.46Q29.74 8.89 29.42 9.53L29.42 9.53L29.42 13.64L28.44 13.64ZM38.94 11.61L38.94 7.52L38.94 7.52Q38.36 7.28 37.92 7.22L37.92 7.22L37.92 7.22Q37.47 7.16 37.22 7.16L37.22 7.16L37.22 7.16Q36.54 7.16 36.01 7.37L36.01 7.37L36.01 7.37Q35.47 7.57 35.10 7.96L35.10 7.96L35.10 7.96Q34.73 8.34 34.53 8.87L34.53 8.87L34.53 8.87Q34.33 9.41 34.33 10.05L34.33 10.05L34.33 10.05Q34.33 10.62 34.48 11.13L34.48 11.13L34.48 11.13Q34.64 11.64 34.93 12.02L34.93 12.02L34.93 12.02Q35.22 12.41 35.63 12.63L35.63 12.63L35.63 12.63Q36.05 12.86 36.57 12.86L36.57 12.86L36.57 12.86Q37.19 12.86 37.77 12.53L37.77 12.53L37.77 12.53Q38.36 12.21 38.94 11.61L38.94 11.61ZM38.94 6.48L38.94 2.69L39.92 2.69L39.92 13.64L39.14 13.64L38.99 12.37L38.99 12.37Q38.77 12.58 38.48 12.82L38.48 12.82L38.48 12.82Q38.19 13.07 37.83 13.28L37.83 13.28L37.83 13.28Q37.48 13.49 37.07 13.64L37.07 13.64L37.07 13.64Q36.65 13.78 36.20 13.78L36.20 13.78L36.20 13.78Q35.53 13.78 35 13.48L35 13.48L35 13.48Q34.47 13.19 34.09 12.69L34.09 12.69L34.09 12.69Q33.71 12.20 33.51 11.56L33.51 11.56L33.51 11.56Q33.30 10.92 33.30 10.23L33.30 10.23L33.30 10.23Q33.30 9.36 33.62 8.63L33.62 8.63L33.62 8.63Q33.94 7.90 34.49 7.38L34.49 7.38L34.49 7.38Q35.04 6.85 35.79 6.56L35.79 6.56L35.79 6.56Q36.53 6.26 37.39 6.26L37.39 6.26L37.39 6.26Q37.85 6.26 38.24 6.33L38.24 6.33L38.24 6.33Q38.63 6.41 38.94 6.48L38.94 6.48ZM45.36 13.78L45.36 13.78L45.36 13.78Q44.56 13.78 43.94 13.48L43.94 13.48L43.94 13.48Q43.31 13.19 42.88 12.69L42.88 12.69L42.88 12.69Q42.44 12.19 42.21 11.53L42.21 11.53L42.21 11.53Q41.98 10.88 41.98 10.16L41.98 10.16L41.98 10.16Q41.98 9.34 42.27 8.63L42.27 8.63L42.27 8.63Q42.55 7.92 43.06 7.40L43.06 7.40L43.06 7.40Q43.57 6.87 44.25 6.57L44.25 6.57L44.25 6.57Q44.93 6.26 45.73 6.26L45.73 6.26L45.73 6.26Q46.53 6.26 47.15 6.56L47.15 6.56L47.15 6.56Q47.78 6.86 48.21 7.37L48.21 7.37L48.21 7.37Q48.64 7.88 48.86 8.53L48.86 8.53L48.86 8.53Q49.09 9.19 49.09 9.91L49.09 9.91L49.09 9.91Q49.09 10.72 48.80 11.43L48.80 11.43L48.80 11.43Q48.51 12.13 48.01 12.66L48.01 12.66L48.01 12.66Q47.51 13.18 46.83 13.48L46.83 13.48L46.83 13.48Q46.14 13.78 45.36 13.78ZM45.54 12.89L45.54 12.89L45.54 12.89Q46.12 12.89 46.58 12.65L46.58 12.65L46.58 12.65Q47.04 12.42 47.37 12.03L47.37 12.03L47.37 12.03Q47.70 11.64 47.88 11.13L47.88 11.13L47.88 11.13Q48.06 10.62 48.06 10.07L48.06 10.07L48.06 10.07Q48.06 9.53 47.89 9.01L47.89 9.01L47.89 9.01Q47.72 8.48 47.40 8.07L47.40 8.07L47.40 8.07Q47.07 7.66 46.60 7.41L46.60 7.41L46.60 7.41Q46.13 7.16 45.53 7.16L45.53 7.16L45.53 7.16Q44.96 7.16 44.50 7.39L44.50 7.39L44.50 7.39Q44.04 7.62 43.70 8.00L43.70 8.00L43.70 8.00Q43.37 8.39 43.19 8.91L43.19 8.91L43.19 8.91Q43.00 9.42 43.00 9.98L43.00 9.98L43.00 9.98Q43.00 10.51 43.18 11.03L43.18 11.03L43.18 11.03Q43.35 11.55 43.67 11.97L43.67 11.97L43.67 11.97Q44.00 12.38 44.47 12.63L44.47 12.63L44.47 12.63Q44.94 12.89 45.54 12.89ZM57.61 9.56L55.66 9.56L55.66 13.64L54.66 13.64L54.66 3.63L57.26 3.63L57.26 3.63Q57.92 3.63 58.50 3.83L58.50 3.83L58.50 3.83Q59.07 4.03 59.49 4.39L59.49 4.39L59.49 4.39Q59.92 4.74 60.16 5.23L60.16 5.23L60.16 5.23Q60.41 5.72 60.41 6.30L60.41 6.30L60.41 6.30Q60.41 6.81 60.23 7.25L60.23 7.25L60.23 7.25Q60.05 7.70 59.77 8.06L59.77 8.06L59.77 8.06Q59.49 8.43 59.15 8.72L59.15 8.72L59.15 8.72Q58.82 9.00 58.50 9.20L58.50 9.20L61.35 13.64L60.12 13.64L57.61 9.56ZM55.66 4.55L55.66 8.64L58.05 8.64L58.05 8.64Q58.37 8.47 58.61 8.22L58.61 8.22L58.61 8.22Q58.86 7.97 59.02 7.68L59.02 7.68L59.02 7.68Q59.19 7.39 59.28 7.07L59.28 7.07L59.28 7.07Q59.36 6.75 59.36 6.44L59.36 6.44L59.36 6.44Q59.36 6.04 59.22 5.69L59.22 5.69L59.22 5.69Q59.08 5.35 58.78 5.09L58.78 5.09L58.78 5.09Q58.48 4.83 58.03 4.69L58.03 4.69L58.03 4.69Q57.59 4.55 56.98 4.55L56.98 4.55L55.66 4.55ZM68.46 12.43L68.46 13.10L68.46 13.10Q68.24 13.25 67.93 13.38L67.93 13.38L67.93 13.38Q67.63 13.50 67.29 13.59L67.29 13.59L67.29 13.59Q66.95 13.69 66.60 13.73L66.60 13.73L66.60 13.73Q66.25 13.78 65.95 13.78L65.95 13.78L65.95 13.78Q65.30 13.78 64.69 13.55L64.69 13.55L64.69 13.55Q64.07 13.32 63.60 12.87L63.60 12.87L63.60 12.87Q63.12 12.41 62.84 11.72L62.84 11.72L62.84 11.72Q62.55 11.04 62.55 10.12L62.55 10.12L62.55 10.12Q62.55 9.22 62.83 8.50L62.83 8.50L62.83 8.50Q63.11 7.79 63.58 7.29L63.58 7.29L63.58 7.29Q64.05 6.79 64.65 6.53L64.65 6.53L64.65 6.53Q65.25 6.26 65.88 6.26L65.88 6.26L65.88 6.26Q66.46 6.26 66.98 6.47L66.98 6.47L66.98 6.47Q67.49 6.69 67.88 7.08L67.88 7.08L67.88 7.08Q68.27 7.47 68.50 8.04L68.50 8.04L68.50 8.04Q68.73 8.60 68.73 9.30L68.73 9.30L68.73 9.30Q68.73 9.45 68.71 9.68L68.71 9.68L68.71 9.68Q68.70 9.92 68.67 10.16L68.67 10.16L63.57 10.16L63.57 10.16Q63.57 10.75 63.77 11.24L63.77 11.24L63.77 11.24Q63.97 11.73 64.34 12.09L64.34 12.09L64.34 12.09Q64.71 12.46 65.24 12.66L65.24 12.66L65.24 12.66Q65.78 12.86 66.45 12.86L66.45 12.86L66.45 12.86Q66.62 12.86 66.86 12.84L66.86 12.84L66.86 12.84Q67.10 12.82 67.38 12.78L67.38 12.78L67.38 12.78Q67.65 12.73 67.93 12.65L67.93 12.65L67.93 12.65Q68.22 12.56 68.46 12.43L68.46 12.43ZM63.57 9.38L67.77 9.38L67.77 9.38Q67.77 8.83 67.60 8.41L67.60 8.41L67.60 8.41Q67.43 8.00 67.15 7.72L67.15 7.72L67.15 7.72Q66.87 7.44 66.51 7.30L66.51 7.30L66.51 7.30Q66.14 7.16 65.75 7.16L65.75 7.16L65.75 7.16Q65.28 7.16 64.89 7.35L64.89 7.35L64.89 7.35Q64.49 7.54 64.20 7.85L64.20 7.85L64.20 7.85Q63.92 8.17 63.75 8.57L63.75 8.57L63.75 8.57Q63.59 8.97 63.57 9.38L63.57 9.38ZM73.04 13.64L72.76 13.64L69.99 6.40L71.15 6.40L72.97 11.52L73.29 12.64L73.42 12.64L73.73 11.52L75.55 6.40L76.59 6.40L72.43 17.31L71.44 17.31L73.04 13.64ZM83.51 12.43L83.51 13.10L83.51 13.10Q83.28 13.25 82.98 13.38L82.98 13.38L82.98 13.38Q82.67 13.50 82.34 13.59L82.34 13.59L82.34 13.59Q82.00 13.69 81.65 13.73L81.65 13.73L81.65 13.73Q81.30 13.78 80.99 13.78L80.99 13.78L80.99 13.78Q80.34 13.78 79.73 13.55L79.73 13.55L79.73 13.55Q79.12 13.32 78.64 12.87L78.64 12.87L78.64 12.87Q78.17 12.41 77.88 11.72L77.88 11.72L77.88 11.72Q77.59 11.04 77.59 10.12L77.59 10.12L77.59 10.12Q77.59 9.22 77.88 8.50L77.88 8.50L77.88 8.50Q78.16 7.79 78.62 7.29L78.62 7.29L78.62 7.29Q79.09 6.79 79.69 6.53L79.69 6.53L79.69 6.53Q80.29 6.26 80.93 6.26L80.93 6.26L80.93 6.26Q81.50 6.26 82.02 6.47L82.02 6.47L82.02 6.47Q82.54 6.69 82.93 7.08L82.93 7.08L82.93 7.08Q83.32 7.47 83.55 8.04L83.55 8.04L83.55 8.04Q83.77 8.60 83.77 9.30L83.77 9.30L83.77 9.30Q83.77 9.45 83.76 9.68L83.76 9.68L83.76 9.68Q83.75 9.92 83.71 10.16L83.71 10.16L78.62 10.16L78.62 10.16Q78.62 10.75 78.82 11.24L78.82 11.24L78.82 11.24Q79.02 11.73 79.39 12.09L79.39 12.09L79.39 12.09Q79.75 12.46 80.29 12.66L80.29 12.66L80.29 12.66Q80.82 12.86 81.49 12.86L81.49 12.86L81.49 12.86Q81.66 12.86 81.90 12.84L81.90 12.84L81.90 12.84Q82.15 12.82 82.42 12.78L82.42 12.78L82.42 12.78Q82.69 12.73 82.98 12.65L82.98 12.65L82.98 12.65Q83.26 12.56 83.51 12.43L83.51 12.43ZM78.62 9.38L82.82 9.38L82.82 9.38Q82.82 8.83 82.65 8.41L82.65 8.41L82.65 8.41Q82.48 8.00 82.20 7.72L82.20 7.72L82.20 7.72Q81.92 7.44 81.55 7.30L81.55 7.30L81.55 7.30Q81.19 7.16 80.80 7.16L80.80 7.16L80.80 7.16Q80.33 7.16 79.93 7.35L79.93 7.35L79.93 7.35Q79.54 7.54 79.25 7.85L79.25 7.85L79.25 7.85Q78.96 8.17 78.80 8.57L78.80 8.57L78.80 8.57Q78.63 8.97 78.62 9.38L78.62 9.38ZM85.48 13.30L85.70 12.43L85.83 12.35L85.83 12.35Q86.08 12.50 86.37 12.60L86.37 12.60L86.37 12.60Q86.65 12.69 86.92 12.76L86.92 12.76L86.92 12.76Q87.19 12.82 87.45 12.85L87.45 12.85L87.45 12.85Q87.71 12.89 87.92 12.89L87.92 12.89L87.92 12.89Q88.27 12.89 88.57 12.80L88.57 12.80L88.57 12.80Q88.87 12.72 89.09 12.57L89.09 12.57L89.09 12.57Q89.31 12.41 89.43 12.20L89.43 12.20L89.43 12.20Q89.56 11.98 89.56 11.71L89.56 11.71L89.56 11.71Q89.56 11.39 89.39 11.18L89.39 11.18L89.39 11.18Q89.22 10.96 88.95 10.82L88.95 10.82L88.95 10.82Q88.68 10.67 88.32 10.56L88.32 10.56L88.32 10.56Q87.97 10.46 87.61 10.35L87.61 10.35L87.61 10.35Q87.24 10.24 86.89 10.10L86.89 10.10L86.89 10.10Q86.54 9.97 86.26 9.76L86.26 9.76L86.26 9.76Q85.99 9.56 85.82 9.26L85.82 9.26L85.82 9.26Q85.65 8.96 85.65 8.52L85.65 8.52L85.65 8.52Q85.65 8.06 85.85 7.65L85.85 7.65L85.85 7.65Q86.05 7.24 86.41 6.93L86.41 6.93L86.41 6.93Q86.77 6.62 87.26 6.44L87.26 6.44L87.26 6.44Q87.75 6.26 88.35 6.26L88.35 6.26L88.35 6.26Q88.52 6.26 88.74 6.28L88.74 6.28L88.74 6.28Q88.96 6.30 89.21 6.33L89.21 6.33L89.21 6.33Q89.46 6.36 89.72 6.42L89.72 6.42L89.72 6.42Q89.98 6.47 90.23 6.56L90.23 6.56L89.98 7.45L89.86 7.53L89.86 7.53Q89.68 7.45 89.46 7.38L89.46 7.38L89.46 7.38Q89.24 7.31 89.02 7.26L89.02 7.26L89.02 7.26Q88.79 7.21 88.57 7.18L88.57 7.18L88.57 7.18Q88.34 7.16 88.15 7.16L88.15 7.16L88.15 7.16Q87.80 7.16 87.51 7.24L87.51 7.24L87.51 7.24Q87.22 7.33 87.01 7.48L87.01 7.48L87.01 7.48Q86.80 7.64 86.68 7.85L86.68 7.85L86.68 7.85Q86.56 8.06 86.56 8.31L86.56 8.31L86.56 8.31Q86.56 8.62 86.73 8.83L86.73 8.83L86.73 8.83Q86.90 9.04 87.18 9.18L87.18 9.18L87.18 9.18Q87.45 9.33 87.80 9.44L87.80 9.44L87.80 9.44Q88.16 9.55 88.53 9.66L88.53 9.66L88.53 9.66Q88.89 9.78 89.25 9.92L89.25 9.92L89.25 9.92Q89.60 10.06 89.88 10.27L89.88 10.27L89.88 10.27Q90.15 10.49 90.32 10.79L90.32 10.79L90.32 10.79Q90.49 11.09 90.49 11.53L90.49 11.53L90.49 11.53Q90.49 12.04 90.26 12.46L90.26 12.46L90.26 12.46Q90.03 12.88 89.64 13.17L89.64 13.17L89.64 13.17Q89.26 13.46 88.75 13.62L88.75 13.62L88.75 13.62Q88.25 13.78 87.70 13.78L87.70 13.78L87.70 13.78Q87.22 13.78 86.63 13.66L86.63 13.66L86.63 13.66Q86.04 13.54 85.48 13.30L85.48 13.30Z"></path></g><!----><!----></svg>